<svg xmlns="http://www.w3.org/2000/svg" width="51" height="49" fill="none"><path fill="#fff" d="M46.678 31.762q0-1.974-1.26-3.276-1.181-1.26-2.953-1.338l-.24-.006q-1.931 0-3.192 1.344-1.26 1.302-1.26 3.276 0 1.932 1.26 3.318l.16.163q1.14 1.102 2.793 1.176l.24.005q1.81 0 3.032-1.18l.16-.164q1.182-1.3 1.255-3.079zm-12.904.077a18 18 0 0 1-1.703 2.444 4 4 0 0 1 2.047-.006 9 9 0 0 1-.344-2.438M21 20.044c0-1.665-.233-2.864-.564-3.706l-.033-.087c-.327-.897-.694-1.297-.953-1.491l-.043-.033c-.204-.157-.496-.301-1.085-.301-.568 0-.895.135-1.144.315-.247.196-.607.608-.937 1.51l-.009.023c-.321.863-.546 2.086-.546 3.77 0 1.846.23 3.23.579 4.238.339.982.718 1.468.993 1.713.243.176.547.297 1.064.297v4l-.256-.005q-1.77-.064-3.123-1.028l-.191-.143q-1.379-1.142-2.166-3.244l-.102-.284q-.798-2.31-.799-5.544 0-2.835.703-4.895l.096-.271q.798-2.184 2.268-3.318 1.512-1.134 3.57-1.134l.255.005q1.895.066 3.273 1.129 1.512 1.134 2.31 3.318.84 2.142.84 5.166 0 3.234-.84 5.544l-.102.284q-.79 2.102-2.208 3.244l-.186.143q-1.413 1.033-3.342 1.033v-4c.55 0 .822-.136 1.025-.297.288-.234.685-.709 1.032-1.713l.021-.061c.36-.988.6-2.349.6-4.177m11.644 0q0-5.124-1.806-8.694t-5.04-5.46q-2.993-1.771-6.944-1.882L18.322 4q-4.242 0-7.476 1.89-3.234 1.848-5.04 5.46Q4 14.92 4 20.044t1.806 8.82q1.806 3.654 5.04 5.628a13.3 13.3 0 0 0 4.083 1.588 15.5 15.5 0 0 0 2.805 4.166q1.975 2.058 4.746 3.234 2.599 1.102 5.825 1.171l.433.005q1.617 0 2.945-.225l.373-.069q1.286-.257 2.155-.643l.24-.113-1.345-5.46q-.714.253-1.638.42-.882.168-1.89.168l-.357-.006a11.7 11.7 0 0 1-2.541-.372 7.5 7.5 0 0 1-2.646-1.26 5.3 5.3 0 0 1-1.192-1.3 12.8 12.8 0 0 0 2.956-1.304q3.032-1.85 4.808-5.177l.232-.45q1.806-3.697 1.806-8.821m4 0c0 2.008-.186 3.933-.575 5.757l.046-.051c1.637-1.746 3.777-2.608 6.11-2.608 2.313 0 4.435.848 6.066 2.562l.045.046c1.6 1.677 2.342 3.78 2.342 6.012 0 2.248-.769 4.323-2.301 6.008l-.041.045c-1.637 1.746-3.777 2.609-6.11 2.609-1.754 0-3.398-.488-4.802-1.47l.91 3.696a4 4 0 0 1-2.095 4.534c-1.041.52-2.212.863-3.398 1.1-1.29.258-2.666.372-4.103.372-2.777 0-5.406-.47-7.82-1.494-2.318-.983-4.358-2.363-6.07-4.147l-.03-.032a19.6 19.6 0 0 1-2.626-3.505 17 17 0 0 1-3.397-1.552l-.033-.02c-2.851-1.74-5.03-4.209-6.542-7.27l-.008-.016C.683 27.492 0 23.923 0 20.044c0-3.872.681-7.426 2.236-10.5h.002C3.764 6.5 5.968 4.071 8.861 2.417 11.7.767 14.894 0 18.322 0c3.452 0 6.663.767 9.493 2.438l.001-.001c2.867 1.675 5.064 4.089 6.591 7.107 1.556 3.074 2.237 6.628 2.237 10.5"/><path fill="url(#a)" d="M18.322 36.424q-4.242 0-7.476-1.932-3.234-1.974-5.04-5.628Q4 25.168 4 20.044t1.806-8.694q1.806-3.612 5.04-5.46Q14.08 4 18.322 4q4.284 0 7.476 1.89 3.234 1.89 5.04 5.46t1.806 8.694-1.806 8.82q-1.806 3.654-5.04 5.628-3.192 1.932-7.476 1.932m0-6.132q2.058 0 3.528-1.176 1.512-1.218 2.31-3.528.84-2.31.84-5.544 0-3.024-.84-5.166-.798-2.184-2.31-3.318-1.47-1.134-3.528-1.134t-3.57 1.134q-1.47 1.133-2.268 3.318-.798 2.142-.799 5.166 0 3.234.8 5.544.797 2.31 2.267 3.528 1.512 1.176 3.57 1.176m10.416 14.364q-3.486 0-6.257-1.175-2.772-1.177-4.747-3.235a15.5 15.5 0 0 1-3.024-4.662l7.602-.798q.588 1.428 1.722 2.31a7.5 7.5 0 0 0 2.646 1.26q1.47.378 2.898.378 1.008 0 1.89-.168a11 11 0 0 0 1.638-.42l1.344 5.46q-.924.462-2.394.756t-3.318.294"/><path fill="url(#b)" d="M42.226 36.424q-1.933 0-3.193-1.344-1.26-1.386-1.26-3.318 0-1.974 1.26-3.276 1.26-1.344 3.193-1.344 1.932 0 3.192 1.344 1.26 1.302 1.26 3.276 0 1.932-1.26 3.318-1.26 1.344-3.192 1.344"/><defs><linearGradient id="a" x1="36.53" x2="26.187" y1="61.226" y2="2.688" gradientUnits="userSpaceOnUse"><stop offset=".313" stop-color="#BF3B05"/><stop offset=".817" stop-color="#E34C0E"/></linearGradient><linearGradient id="b" x1="36.53" x2="26.187" y1="61.226" y2="2.688" gradientUnits="userSpaceOnUse"><stop offset=".313" stop-color="#BF3B05"/><stop offset=".817" stop-color="#E34C0E"/></linearGradient></defs></svg>