<svg xmlns="http://www.w3.org/2000/svg" width="64" height="61" fill="none"><path fill="#fff" d="M63.353 25.706C63.353 11.532 49.143 0 31.676 0S0 11.532 0 25.706c0 12.707 11.27 23.348 26.492 25.36 1.03.223 2.435.68 2.791 1.563.32.801.208 2.054.104 2.865 0 0-.37 2.235-.451 2.71-.14.802-.636 3.133 2.743 1.707 3.382-1.425 18.242-10.741 24.887-18.39 4.59-5.035 6.79-10.142 6.79-15.815z"/><path fill="#00C300" d="M52.816 33.892h-8.898a.604.604 0 0 1-.605-.606V19.462c0-.335.27-.606.605-.606h8.898c.333 0 .606.274.606.606v2.248c0 .335-.27.605-.606.605h-6.048v2.334h6.048c.333 0 .606.273.606.606v2.247c0 .336-.27.606-.606.606h-6.048v2.334h6.048c.333 0 .606.273.606.605v2.248c0 .335-.27.605-.606.605zM19.895 33.892c.333 0 .606-.27.606-.606v-2.248a.61.61 0 0 0-.606-.605h-6.047V19.459a.61.61 0 0 0-.606-.605h-2.248a.604.604 0 0 0-.605.605v13.827c0 .335.27.605.605.605zM25.255 18.856H23.01a.606.606 0 0 0-.606.606v13.824c0 .334.271.605.606.605h2.244a.606.606 0 0 0 .606-.605V19.462a.606.606 0 0 0-.605-.606M40.548 18.856H38.3a.604.604 0 0 0-.605.606v8.21L31.37 19.13l-.048-.063-.003-.003-.036-.038-.011-.01q-.017-.012-.033-.026l-.018-.012a.1.1 0 0 0-.033-.02q-.01-.008-.017-.012l-.033-.018-.018-.01q-.018-.008-.035-.014c-.006 0-.012-.006-.021-.006l-.036-.012a.1.1 0 0 1-.02-.006c-.013 0-.024-.006-.036-.009q-.014 0-.027-.003c-.012 0-.02-.003-.033-.003h-2.286a.606.606 0 0 0-.605.606v13.824c0 .332.27.605.605.605h2.248c.335 0 .605-.27.605-.605v-8.21l6.333 8.554a.6.6 0 0 0 .164.157c.011.01.023.015.038.024l.018.01q.014.006.03.014.014.008.03.012c.005 0 .011.006.017.006a.2.2 0 0 0 .042.012h.009q.076.018.157.02h2.233c.332 0 .605-.27.605-.605V19.465a.606.606 0 0 0-.605-.606z"/></svg>