<svg xmlns="http://www.w3.org/2000/svg" width="57" height="57" fill="none"><path fill="#050E7C" d="M49.611 1.737c-.105-.745-.672-.977-1.285-1.18C44.8-.62 41.52.114 38.72 2.315c-3.364 2.647-4.82 6.228-3.99 10.56.182.941.017 1.637-.732 2.379a2009 2009 0 0 0-18.738 18.74c-.78.79-1.44.987-2.493.747-5.26-1.195-11 2.2-12.517 8.224-.458 1.827-.229 3.66.219 5.457.347 1.395 1.407 1.66 2.446.64 1.587-1.554 3.137-3.143 4.718-4.704.889-.879 1.112-.872 2.028 0a53 53 0 0 1 1.928 1.927c.944.996.949 1.49 0 2.457-1.45 1.475-2.93 2.923-4.387 4.395-1.188 1.201-.989 2.064.643 2.559 4.371 1.324 9.392-.578 11.788-4.161 1.38-2.06 2.133-4.269 2.018-6.753-.011-.249.004-.489-.08-.756-.41-1.322-.252-2.354.904-3.462 4.594-4.397 9.045-8.943 13.527-13.458 1.547-1.56 3.192-3.026 4.605-4.712.786-.938 1.6-1.27 2.906-1 4.134.854 7.464-.675 10.172-3.808 1.578-1.827 2.195-4.018 2.43-6.327.131-1.27-.12-2.553-.627-3.741-.53-1.238-1.294-1.343-2.234-.427-1.518 1.478-3.003 2.994-4.504 4.492-.27.267-.516.563-.857.75-.287.158-.606.198-.85-.007-1.099-.932-2.088-1.981-3.095-3.01-.535-.546-.173-1.12.302-1.59 1.54-1.53 3.074-3.068 4.605-4.605.36-.362.812-.675.75-1.285"/></svg>