<svg xmlns="http://www.w3.org/2000/svg" width="766" height="227" fill="none"><path fill="#FFF200" d="M144 0h484v74H144z"/><path fill="#050E7C" d="M180.908 18.608h7.722v45.468h-7.722zm-8.748 9.936h23.868v7.452H172.16zm8.748 3.24 4.698 2.268a122 122 0 0 1-2.106 5.994 93 93 0 0 1-2.646 6.264 69 69 0 0 1-3.024 5.886q-1.566 2.754-3.294 4.86-.54-1.728-1.674-3.942a60 60 0 0 0-2.052-3.726q1.566-1.62 3.024-3.78a66 66 0 0 0 2.862-4.59q1.35-2.43 2.43-4.806a50 50 0 0 0 1.782-4.428m10.368-18.846 5.4 5.94a68 68 0 0 1-7.236 2.322 108 108 0 0 1-7.83 1.782q-3.942.756-7.722 1.242-.216-1.296-.918-3.078-.648-1.782-1.296-2.97a99 99 0 0 0 7.128-1.35 104 104 0 0 0 6.804-1.782q3.24-1.026 5.67-2.106m-3.024 22.95q.648.486 1.782 1.674 1.188 1.188 2.538 2.592t2.43 2.592 1.566 1.674l-4.59 5.886a58 58 0 0 0-1.674-2.646 112 112 0 0 0-2.052-2.97 71 71 0 0 0-2.16-2.97 48 48 0 0 0-1.836-2.376zm13.77-21.816 8.964 1.404a272 272 0 0 1-1.674 11.394 278 278 0 0 1-2.052 11.394 268 268 0 0 1-2.268 10.584 192 192 0 0 1-2.376 9.126l-7.56-1.512q1.134-4.212 2.214-9.396a254 254 0 0 0 1.998-10.8 237 237 0 0 0 1.674-11.286q.702-5.67 1.08-10.908m-11.286 40.176q3.294-.27 7.722-.702 4.482-.432 9.45-.918 5.022-.54 9.936-1.08l.216 7.182q-4.428.702-8.964 1.404-4.482.702-8.694 1.296-4.212.648-7.83 1.134zm18.36-12.96 7.56-2.106a103 103 0 0 1 2.862 7.614q1.35 4.05 2.322 7.884t1.296 6.912l-8.37 2.538q-.216-2.97-1.08-6.858a110 110 0 0 0-1.998-8.1q-1.188-4.158-2.592-7.884m41.418-25.758a78 78 0 0 0-.702 2.97 71 71 0 0 1-.54 2.592 629 629 0 0 1-.972 4.482q-.54 2.7-1.242 5.724a277 277 0 0 1-1.404 5.778 123 123 0 0 1-1.728 6.156 244 244 0 0 1-2.214 6.75 140 140 0 0 1-2.376 6.588 107 107 0 0 1-2.322 5.67l-9.072-3.078q1.188-1.998 2.538-4.968t2.646-6.372a225 225 0 0 0 2.43-6.804 111 111 0 0 0 1.89-6.21q.54-1.944.972-3.888.486-1.944.864-3.726.378-1.836.648-3.456t.432-2.916q.216-1.728.216-3.348.054-1.674-.054-2.7zm-14.796 7.56q3.51 0 7.074-.324a99 99 0 0 0 7.236-.918q3.672-.648 7.29-1.458v8.154q-3.348.81-7.182 1.35t-7.614.864q-3.726.27-6.858.27-2.052 0-3.672-.054-1.62-.108-3.024-.162l-.216-8.154q2.214.216 3.726.324t3.24.108m16.902 8.748a94 94 0 0 1 5.184-.432 98 98 0 0 1 5.508-.162q2.268 0 4.644.108 2.43.108 4.914.378l-.162 7.83a98 98 0 0 0-4.428-.486 56 56 0 0 0-4.968-.216q-2.916 0-5.508.162a63 63 0 0 0-5.184.432zm3.942 13.824q-.27 1.026-.486 2.268-.216 1.188-.216 1.998 0 .864.324 1.566.378.648 1.08 1.134.756.486 1.998.756 1.242.216 3.024.216 2.754 0 5.562-.27 2.862-.324 5.994-.864l-.324 8.316q-2.322.27-5.13.486-2.754.27-6.156.27-7.074 0-10.8-2.43-3.672-2.376-3.672-6.48 0-2.052.324-4.104.378-2.106.702-3.618zm46.764-30.132a40 40 0 0 0-.81 3.132 42 42 0 0 1-.648 2.916l-.594 2.862q-.324 1.512-.702 3.186a248 248 0 0 0-.756 3.348 113 113 0 0 1-.81 3.348q-.432 1.62-.864 3.132 3.186-1.404 6.156-1.998 2.97-.648 6.264-.648 4.428 0 7.776 1.512 3.402 1.458 5.346 4.158t1.944 6.372q0 4.698-2.106 7.938t-6.048 5.076-9.45 2.322q-5.508.54-12.312-.162l-2.322-8.478q4.32.756 8.478.864t7.506-.54q3.348-.702 5.346-2.322 1.998-1.674 1.998-4.482 0-2.052-1.836-3.618-1.836-1.62-5.346-1.62-4.59 0-8.37 1.62-3.726 1.62-5.994 4.644-.378.54-.702 1.08-.324.486-.702 1.188l-7.722-2.7q1.512-2.916 2.808-6.588a110 110 0 0 0 2.322-7.398 103 103 0 0 0 1.674-7.074q.702-3.294.972-5.454.27-1.944.324-3.24a24 24 0 0 0-.054-2.754zm-19.98 5.994q2.862.486 5.994.81 3.132.27 5.724.27t5.67-.162 6.48-.486q3.456-.324 6.966-.81 3.51-.54 6.912-1.242l.162 7.776q-2.43.378-5.67.81-3.186.432-6.804.81-3.564.324-7.128.594-3.51.216-6.534.216-3.294 0-6.318-.108-2.97-.162-5.454-.378zm74.142-4.968q-.27 1.188-.594 2.646-.27 1.404-.54 2.538-.27 1.35-.594 2.754-.324 1.35-.594 2.646l-.54 2.484a160 160 0 0 1-1.404 5.508q-.81 3.186-1.944 6.858a127 127 0 0 1-2.43 7.398q-1.35 3.672-2.862 7.074t-3.132 5.994l-8.532-3.402a42 42 0 0 0 3.564-5.832 72 72 0 0 0 3.024-6.534 92 92 0 0 0 2.376-6.588q1.08-3.294 1.836-6.102t1.188-4.86a92 92 0 0 0 1.134-7.236q.432-3.402.324-6.372zm18.63 4.968q1.242 1.836 2.592 4.482a79 79 0 0 1 2.7 5.508 111 111 0 0 1 2.322 5.616q1.08 2.7 1.674 4.644l-8.37 3.834q-.486-2.376-1.404-5.184a64 64 0 0 0-2.052-5.67 48 48 0 0 0-2.538-5.508q-1.35-2.592-2.808-4.428zm-41.904 5.67q1.566.108 3.132.108l3.186-.108q1.35-.054 3.24-.162a460 460 0 0 1 3.996-.324l4.212-.324a99 99 0 0 1 3.996-.324 54 54 0 0 1 3.078-.108q3.132 0 5.4 1.08 2.322 1.026 3.618 3.456t1.296 6.48q0 3.132-.27 6.912a64 64 0 0 1-.918 7.182q-.648 3.456-1.836 5.832-1.35 2.916-3.726 4.05-2.376 1.188-5.67 1.188-1.566 0-3.348-.216a34 34 0 0 1-3.24-.54l-1.404-8.586q1.026.27 2.268.54 1.296.27 2.484.432t1.836.162q1.296 0 2.214-.486t1.458-1.566q.702-1.35 1.134-3.672.432-2.376.648-5.13t.216-5.238q0-1.998-.54-2.916T359 33.728q-1.08-.324-2.754-.324-1.134 0-3.132.216-1.998.162-4.266.432a99 99 0 0 0-4.212.486q-1.944.27-3.024.432-1.296.216-3.294.486t-3.348.54zm40.014-12.96q.702.972 1.458 2.376.81 1.35 1.512 2.7.756 1.35 1.242 2.322l-5.13 2.16a53 53 0 0 0-1.242-2.43q-.702-1.35-1.458-2.7-.702-1.35-1.458-2.376zm6.642-2.592a38 38 0 0 1 1.512 2.43q.81 1.35 1.566 2.7a29 29 0 0 1 1.188 2.214l-5.076 2.16a69 69 0 0 0-1.998-3.78q-1.188-2.16-2.268-3.672zm19.17 22.086v20.358h-7.29V40.964h-5.022v-7.236zm0 17.334q1.404 2.592 3.996 3.78t6.426 1.35q2.646.108 6.264.162 3.672 0 7.722-.054t7.884-.216q3.888-.162 6.966-.432a45 45 0 0 0-.864 2.16 33 33 0 0 0-.864 2.646q-.378 1.404-.594 2.484-2.754.162-6.21.216-3.456.108-7.128.108-3.672.054-7.074 0a256 256 0 0 1-6.102-.162q-4.698-.216-7.938-1.512-3.24-1.242-5.616-4.374a78 78 0 0 1-2.97 3.024 164 164 0 0 1-3.456 3.348l-3.618-7.506q1.566-1.08 3.294-2.376a52 52 0 0 0 3.348-2.646zM387.026 17.96l6.21-3.888a53 53 0 0 1 2.754 2.862 50 50 0 0 1 2.592 3.132q1.242 1.512 1.89 2.862l-6.696 4.374q-.54-1.296-1.674-2.916a39 39 0 0 0-2.43-3.348 61 61 0 0 0-2.646-3.078m15.876 16.578h33.318V40.1h-33.318zm-1.512 8.316h36.504v5.67H401.39zm8.262-10.638h7.344v13.392h-7.344zm12.15 0h7.452v13.392h-7.452zm-17.334-11.664h6.966V19.04h-9.558v-4.806h16.092v11.178h-13.5zm-1.89 0h6.372v5.022q0 .918.27 1.188.27.216 1.134.216h3.186q.756 0 .972-.324.27-.324.432-1.404.864.594 2.43 1.134 1.62.54 2.916.81-.486 2.808-1.89 3.834-1.35 1.026-4.05 1.026h-5.022q-2.646 0-4.104-.54-1.458-.594-2.052-1.998t-.594-3.888zm19.602 0h7.128V19.04h-9.936v-4.806h16.578v11.178h-13.77zm-1.836 0h6.372v5.022q0 .918.27 1.188.27.216 1.134.216h3.186q.756 0 .972-.324.27-.324.432-1.404.864.594 2.43 1.134 1.62.54 2.916.81-.486 2.808-1.89 3.834-1.35 1.026-4.05 1.026h-5.022q-2.646 0-4.104-.54-1.458-.594-2.052-1.998t-.594-3.888zm.594 30.186 5.778-3.186q1.944.864 4.104 1.944t4.104 2.16a63 63 0 0 1 3.294 1.944l-8.154 2.808q-1.458-1.188-3.996-2.754a57 57 0 0 0-5.13-2.916m-9.234-3.078 6.858 2.376q-2.106 1.944-5.238 3.672-3.132 1.674-5.994 2.754a19 19 0 0 0-1.674-1.566 32 32 0 0 0-2.106-1.728 28 28 0 0 0-1.89-1.404 51 51 0 0 0 5.616-1.836q2.754-1.08 4.428-2.268m47.52-21.87q2.376.216 4.752.378 2.43.108 4.86.108 5.022 0 9.99-.432 4.968-.486 9.234-1.35v8.1q-4.212.594-9.234.918-4.968.324-9.936.378-2.376 0-4.806-.054-2.43-.108-4.806-.27zm21.492-8.802q-.162.756-.27 1.728-.054.972-.108 1.89-.054.81-.108 2.268t-.108 3.348v3.996q0 4.05.108 7.344.162 3.24.324 5.886.216 2.592.324 4.752.162 2.106.162 3.942 0 2.376-.648 4.32t-1.998 3.294q-1.35 1.404-3.51 2.106-2.106.756-5.13.756-5.724 0-9.18-2.43-3.456-2.376-3.456-6.966 0-3.024 1.566-5.238 1.566-2.268 4.374-3.456 2.808-1.242 6.534-1.242 4.05 0 7.344.864t5.886 2.268q2.646 1.404 4.644 3.024a49 49 0 0 1 3.564 2.97l-4.374 6.858q-3.294-3.078-6.264-5.238t-5.778-3.294-5.67-1.134q-1.836 0-3.024.702-1.134.702-1.134 1.998 0 1.404 1.242 1.998 1.242.54 2.916.54 1.35 0 2.106-.486.81-.486 1.188-1.458t.378-2.43q0-1.35-.108-3.51a443 443 0 0 0-.27-4.914q-.108-2.7-.216-5.724a171 171 0 0 1-.108-6.102q0-3.24-.054-5.832 0-2.592-.054-3.672 0-.594-.162-1.728a23 23 0 0 0-.27-1.998zm-26.19.702q-.216.594-.54 1.728a69 69 0 0 0-.594 2.214q-.27 1.08-.378 1.566-.216.864-.54 2.7-.27 1.836-.648 4.266a580 580 0 0 0-.648 4.914q-.27 2.538-.486 4.806a53 53 0 0 0-.162 3.726v.594q0 .486.054.648.324-.81.648-1.404l.648-1.296q.378-.702.702-1.458l3.996 3.132q-.81 2.43-1.62 4.968a459 459 0 0 0-1.404 4.698 69 69 0 0 0-.918 3.78q-.108.54-.216 1.35a9 9 0 0 0-.108 1.188v1.08q0 .702.054 1.404l-7.344.486q-.864-2.754-1.566-7.29-.648-4.536-.648-10.044 0-3.078.216-6.372.27-3.348.594-6.426.378-3.078.702-5.562.378-2.538.594-4.05.162-1.242.324-2.916.216-1.674.27-3.186zm30.456-3.078q.54 1.08 1.026 2.43.486 1.296.918 2.592.432 1.242.702 2.268l-4.32 1.404a96 96 0 0 0-.81-2.43 52 52 0 0 0-.81-2.538 21 21 0 0 0-.972-2.43zm5.67-1.782q.54 1.08 1.026 2.43.54 1.296.972 2.592.486 1.242.756 2.268l-4.266 1.35a89 89 0 0 0-1.242-3.672 38 38 0 0 0-1.512-3.618zm56.052 44.064q-1.728 1.512-4.212 2.646t-6.102 1.134q-3.24 0-5.238-2.322-1.944-2.322-1.944-6.588 0-2.16.27-4.536.324-2.43.648-4.806.378-2.43.648-4.59.324-2.214.324-3.996t-.864-2.7q-.864-.972-2.43-.972-1.89 0-4.212 1.404t-4.752 3.564a67 67 0 0 0-4.536 4.536q-2.106 2.376-3.564 4.32l-.108-9.99a59 59 0 0 1 2.538-2.484 70 70 0 0 1 3.618-3.024 46 46 0 0 1 4.32-3.024 27.6 27.6 0 0 1 4.644-2.268q2.376-.864 4.59-.864 3.132 0 5.13 1.134t2.916 3.078q.972 1.89.972 4.212 0 2.106-.27 4.482a76 76 0 0 1-.594 4.806 214 214 0 0 0-.594 4.752 50 50 0 0 0-.216 4.482q0 .864.432 1.404.486.486 1.242.486 1.242 0 2.916-.918 1.728-.918 3.402-2.592zm-37.908-25.65q-1.026.108-2.376.27t-2.862.378q-1.458.162-2.916.378-1.458.162-2.7.324l-.81-8.316q1.296.054 2.484.054 1.188-.054 2.862-.108a82 82 0 0 0 3.24-.324 136 136 0 0 0 3.78-.486 113 113 0 0 0 3.564-.648q1.674-.324 2.538-.648l2.484 3.294q-.432.594-1.134 1.62-.648.972-1.35 1.998a50 50 0 0 1-1.134 1.728l-3.996 11.718q-.864 1.188-2.106 3.024a364 364 0 0 0-2.592 3.888 686 686 0 0 1-2.646 3.888 80 80 0 0 1-2.214 3.132l-5.076-7.182a738 738 0 0 1 2.322-2.916q1.296-1.62 2.7-3.456a244 244 0 0 0 2.754-3.672q1.404-1.836 2.592-3.51a146 146 0 0 0 2.16-3.078l.054-.648zm-.702-11.232V17.42q0-1.35-.27-2.7l9.45.27q-.324 1.404-.702 3.78a155 155 0 0 0-.756 5.292q-.378 2.97-.702 6.21t-.54 6.48q-.162 3.24-.162 6.156v4.482q.054 2.376.108 4.968.108 2.538.27 5.13l.162 2.16q.162 1.458.27 2.484h-8.964q.108-1.08.108-2.484.054-1.35.054-1.998.054-2.646.108-5.022.054-2.43.108-5.184t.162-6.372q.054-1.242.162-3.078t.216-3.996l.324-4.428q.162-2.214.27-4.158.162-1.998.216-3.402.108-1.458.108-1.998m51.246-2.916q1.242.162 2.7.27 1.458.054 2.808.054h2.538q1.674-.054 3.726-.054l4.158-.108q2.106-.054 3.78-.108 1.728-.108 2.7-.162a56 56 0 0 0 3.078-.324q1.188-.162 1.728-.324l4.05 5.778q-1.026.648-2.106 1.296a22 22 0 0 0-2.052 1.35 47 47 0 0 0-2.538 1.836 69 69 0 0 0-2.862 2.214 677 677 0 0 1-2.862 2.214q-1.35 1.08-2.484 1.944 1.08-.216 1.944-.27a30 30 0 0 1 1.836-.054q4.644 0 8.37 1.836 3.78 1.836 5.994 5.022 2.214 3.132 2.214 7.236 0 4.212-2.106 7.83t-6.534 5.778q-4.428 2.214-11.448 2.214-3.78 0-6.966-1.134t-5.076-3.24q-1.89-2.16-1.89-5.13 0-2.376 1.296-4.482 1.35-2.106 3.726-3.402t5.454-1.296q3.78 0 6.426 1.512 2.646 1.458 4.05 3.996 1.458 2.538 1.458 5.616l-7.668.918q0-2.646-1.188-4.212-1.134-1.62-3.024-1.62-1.35 0-2.106.702-.702.648-.702 1.458 0 1.242 1.242 2.052t3.294.81q4.536 0 7.452-1.026t4.266-2.916q1.404-1.944 1.404-4.536 0-2.322-1.458-3.996-1.404-1.728-3.834-2.646t-5.4-.918-5.562.864a19 19 0 0 0-4.806 2.322 28 28 0 0 0-4.374 3.51 53 53 0 0 0-3.996 4.374l-5.94-6.156q1.296-1.026 3.024-2.43t3.564-2.916a555 555 0 0 1 3.51-2.97q1.674-1.404 2.862-2.376l2.538-2.052q1.458-1.134 2.916-2.322a286 286 0 0 1 2.862-2.322q1.35-1.134 2.322-1.998-.81 0-1.944.054-1.08.054-2.322.108-1.242 0-2.538.054-1.242.054-2.376.162-1.134.054-1.998.108a35 35 0 0 0-2.538.216q-1.35.108-2.322.27z"/><mask id="a" width="149" height="174" x="28" y="42" fill="#000" maskUnits="userSpaceOnUse"><path fill="#fff" d="M28 42h149v174H28z"/><path d="M112.6 204v-90.8q0-7 .4-16.4t1-17.4h-.8q-4.8 8.6-9.2 16.8-4.4 8-8.4 14.4l-18 29h87v27.2h-124V142l58-87.6h46.8V204z"/></mask><path fill="#fff" d="M112.6 204v-90.8q0-7 .4-16.4t1-17.4h-.8q-4.8 8.6-9.2 16.8-4.4 8-8.4 14.4l-18 29h87v27.2h-124V142l58-87.6h46.8V204z"/><path fill="#050E7C" d="M112.6 204h-12c0 6.627 5.373 12 12 12zm.4-107.2-11.989-.51zm1-17.4 11.966.897A11.997 11.997 0 0 0 114 67.4zm-.8 0v-12c-4.35 0-8.359 2.354-10.478 6.152zM104 96.2l10.515 5.783.059-.109zm-8.4 14.4-10.176-6.36-.02.032zm-18 29-10.196-6.328A12 12 0 0 0 77.6 151.6zm87 0h12c0-6.627-5.373-12-12-12zm0 27.2v12c6.627 0 12-5.373 12-12zm-124 0h-12c0 6.627 5.373 12 12 12zm0-24.8-10.006-6.625A12 12 0 0 0 28.6 142zm58-87.6v-12a12 12 0 0 0-10.006 5.375zm46.8 0h12c0-6.627-5.373-12-12-12zm0 149.6v12c6.627 0 12-5.373 12-12zm-32.8 0h12v-90.8h-24V204zm0-90.8h12c0-4.45.127-9.74.389-15.89L113 96.8l-11.989-.51c-.272 6.383-.411 12.027-.411 16.91zm.4-16.4 11.989.51a532 532 0 0 1 .977-17.013L114 79.4l-11.966-.898a550 550 0 0 0-1.023 17.788zm1-17.4v-12h-.8v24h.8zm-.8 0-10.478-5.848q-4.846 8.681-9.296 16.974L104 96.2l10.574 5.674q4.35-8.108 9.104-16.626zM104 96.2l-10.515-5.783c-2.847 5.177-5.534 9.78-8.061 13.823L95.6 110.6l10.176 6.36c2.806-4.49 5.719-9.487 8.739-14.977zm-8.4 14.4-10.196-6.328-18 29L77.6 139.6l10.196 6.328 18-29zm-18 29v12h87v-24h-87zm87 0h-12v27.2h24v-27.2zm0 27.2v-12h-124v24h124zm-124 0h12V142h-24v24.8zm0-24.8 10.006 6.625 58-87.6L98.6 54.4l-10.006-6.625-58 87.6zm58-87.6v12h46.8v-24H98.6zm46.8 0h-12V204h24V54.4zm0 149.6v-12h-32.8v24h32.8z" mask="url(#a)"/><path fill="#FFF200" stroke="#050E7C" stroke-linejoin="bevel" stroke-width="11" d="M720.655 117.831c18.472-2.094 35.287 10.428 38.81 28.535l.003.001c3.449 17.748-6.968 34.305-23.437 40.253-3.946 1.425-5.687 2.219-7.887 4.597v-.002c-.335.363-.628.768-1.043 1.398-.365.554-.977 1.529-1.684 2.45v.001c-3.129 4.08-8.56 4.563-12.325 2.721l-.381-.205-21.407-12.648-.239-.151c-2.017-1.336-3.347-3.339-3.992-5.37-.646-2.036-.748-4.574.368-6.982l.003-.005c1.3-2.8 1.777-3.338 2.229-5.071l.001-.002c.838-3.211.399-4.714-.251-9.501v-.003c-2.69-19.852 11.481-37.776 31.231-40.017z"/><path fill="#FFF200" stroke="#050E7C" stroke-linejoin="bevel" stroke-width="11" d="M715.262 189.438c10.861 7.437 1.823 23.7-10.128 18.924l-.754-.371-17.995-10.619-.474-.314c-10.38-7.673-1.119-23.915 10.84-18.504l.524.272 17.671 10.41z"/><path fill="#FFF200" stroke="#050E7C" stroke-linejoin="bevel" stroke-width="11" d="m709.21 201.294 1.497 1.299c1.037 1.298 2.075 3.307 1.715 5.779-.35 2.401-1.831 3.908-2.829 4.679-1.809 1.397-4.15 1.995-4.94 2.203v.003c-10.917 2.863-22.265-3.862-24.975-14.834-.197-.8-.791-3.139-.412-5.4.211-1.261.85-3.256 2.785-4.684 1.973-1.458 4.193-1.519 5.81-1.245l1.883.689z"/><path fill="#fff" stroke="#050E7C" stroke-linejoin="bevel" stroke-width="11" d="M738.842 129.706c.458.24 1.006.576 1.579 1.084l.247.227.005.005c6.31 6.099-1.091 16.039-8.702 12.226v.001a13 13 0 0 1-.637-.343l-.432-.253c-.265-.157-.308-.177-.291-.169l-.004-.001c-2.754-1.296-6.024-1.558-8.858-.715l-.012-.002v.002c-1.117.331-2.481 1.005-3.539 1.748l-.262.215c-.177.147-.525.44-.906.72-.644.472-2.305 1.63-4.613 1.647v-.001c-5.469.041-9.456-5.608-6.977-10.864h.001c.536-1.135 1.345-1.932 1.646-2.225.435-.423.898-.805 1.287-1.109a29 29 0 0 1 2.065-1.464h-.001c8.3-5.324 19.146-5.864 27.926-.965l.037.017c.028.014.245.116.441.219Z"/><path fill="#fff" d="M754.069 147.416c2.895 14.895-5.798 28.937-19.906 34.032-4.164 1.504-6.935 2.66-10.056 6.033-1.289 1.395-1.957 2.809-3.054 4.236-1.274 1.661-3.72 2.02-5.543 1.128l-21.407-12.649c-1.68-1.113-2.531-3.6-1.671-5.455.996-2.145 1.946-3.629 2.564-6.001 1.175-4.502.471-7.259-.123-11.631-2.272-16.766 9.685-31.917 26.401-33.814 15.595-1.767 29.813 8.804 32.793 24.124z"/><path fill="#FFF200" d="m694.484 183.565 17.671 10.41c5.32 3.643 1.01 11.673-4.979 9.279l-17.995-10.619c-5.166-3.818-.546-11.717 5.303-9.07M703.257 209.937c-7.952 2.086-16.266-2.844-18.239-10.833-.453-1.834-1.064-5.092 1.926-4.587l19.466 11.511c1.911 2.39-1.337 3.428-3.156 3.907z"/><g filter="url(#b)"><mask id="d" width="456" height="137" x="245" y="82" fill="#000" maskUnits="userSpaceOnUse"><path fill="#fff" d="M245 82h456v137H245z"/><path d="M348.44 108.28q0 2.4 1.68 4.2 1.8 1.68 4.2 1.68t4.08-1.68q1.8-1.8 1.8-4.2t-1.8-4.08q-1.68-1.8-4.08-1.8t-4.2 1.8q-1.68 1.68-1.68 4.08m-8.4 0q0-3.96 1.92-7.2t5.16-5.16 7.2-1.92 7.2 1.92 5.16 5.16 1.92 7.2-1.92 7.2-5.16 5.16-7.2 1.92-7.2-1.92-5.16-5.16-1.92-7.2M325.52 103q-.12.84-.48 3t-.6 4.56-.24 4.08v80.04q0 5.52-3.48 8.88-3.36 3.36-10.32 3.36-3.6 0-7.2-.12-3.48-.12-6.96-.36-3.36-.24-6.72-.6l-1.8-17.88q3.84.72 7.32 1.08 3.6.24 5.76.24 2.28 0 3.12-.84.96-.96 1.08-3.24v-4.08q.12-3.24.12-7.8v-58.8q0-2.52-.36-6.12-.36-3.72-.72-5.4zm-61.56 18.6q2.76.36 6.12.72 3.48.24 6.24.24H350q2.76 0 6.6-.24t6.36-.6v18.96q-3-.24-6.6-.36t-6.24-.12h-73.8q-2.64 0-6.24.12-3.48.12-6.12.36zm32.28 34.92q-2.16 4.08-5.16 8.88-2.88 4.68-6.24 9.48-3.24 4.68-6.36 8.76-3 3.96-5.4 6.6l-15.72-10.68q3-2.88 6.12-6.6t6.12-7.8 5.52-8.28q2.64-4.2 4.56-8.16zm52.32-8.4q2.28 2.88 5.04 6.96 2.76 3.96 5.64 8.52 2.88 4.44 5.4 8.76 2.52 4.2 4.32 7.44l-17.04 9.36q-2.04-4.08-4.56-8.52-2.4-4.56-5.04-9-2.52-4.44-5.04-8.28t-4.56-6.6zm31.32 2.4q16.44-4.2 29.4-9.6t23.04-11.52q6.12-3.72 12.6-8.88t12.24-10.56q5.76-5.52 9.48-10.08l15.72 15q-5.64 5.52-12.6 11.28-6.84 5.64-14.28 10.8-7.32 5.16-14.4 9.36-6.96 3.96-15.48 8.16t-18 7.92q-9.36 3.72-18.72 6.48zm49.56-11.76 20.88-4.56v53.64q0 2.88.12 6.36.12 3.36.36 6.36t.72 4.68h-23.04q.24-1.68.48-4.68t.36-6.36q.12-3.48.12-6.36zm82.44-32.88q3.12 2.16 7.32 5.4a189 189 0 0 1 8.64 6.84q4.56 3.6 8.52 7.2 4.08 3.48 6.72 6.36l-14.88 15.24q-2.4-2.64-6.12-6.12-3.72-3.6-8.04-7.32a215 215 0 0 0-8.52-7.2q-4.2-3.36-7.44-5.64zm-17.76 79.68q8.88-1.2 16.8-3.36 8.04-2.16 15.12-5.04t12.96-6.24q10.8-6.24 19.68-14.16 8.88-8.04 15.48-16.68 6.72-8.76 10.68-17.16l11.28 20.52q-4.8 8.52-11.88 16.8-7.08 8.16-15.96 15.48-8.76 7.32-18.84 13.2-6.12 3.6-13.2 6.84-7.08 3.12-14.64 5.4-7.56 2.4-15.12 3.6zm124.8 1.44v-68.52q0-3.6-.36-7.92t-1.08-7.68h22.68q-.36 3.36-.84 7.32-.36 3.96-.36 8.28V187q0 1.56.12 4.92.24 3.24.6 6.84t.6 6.36h-22.8q.6-3.84.96-9.12.48-5.28.48-9m15.72-53.28q6 1.56 13.56 4.08 7.56 2.4 15.24 5.16t14.28 5.4q6.72 2.64 10.8 4.68l-8.28 20.28q-5.04-2.64-11.04-5.16-5.88-2.64-12-5.04-6-2.52-11.88-4.56-5.76-2.16-10.68-3.84z"/></mask><path fill="url(#c)" d="M348.44 108.28q0 2.4 1.68 4.2 1.8 1.68 4.2 1.68t4.08-1.68q1.8-1.8 1.8-4.2t-1.8-4.08q-1.68-1.8-4.08-1.8t-4.2 1.8q-1.68 1.68-1.68 4.08m-8.4 0q0-3.96 1.92-7.2t5.16-5.16 7.2-1.92 7.2 1.92 5.16 5.16 1.92 7.2-1.92 7.2-5.16 5.16-7.2 1.92-7.2-1.92-5.16-5.16-1.92-7.2M325.52 103q-.12.84-.48 3t-.6 4.56-.24 4.08v80.04q0 5.52-3.48 8.88-3.36 3.36-10.32 3.36-3.6 0-7.2-.12-3.48-.12-6.96-.36-3.36-.24-6.72-.6l-1.8-17.88q3.84.72 7.32 1.08 3.6.24 5.76.24 2.28 0 3.12-.84.96-.96 1.08-3.24v-4.08q.12-3.24.12-7.8v-58.8q0-2.52-.36-6.12-.36-3.72-.72-5.4zm-61.56 18.6q2.76.36 6.12.72 3.48.24 6.24.24H350q2.76 0 6.6-.24t6.36-.6v18.96q-3-.24-6.6-.36t-6.24-.12h-73.8q-2.64 0-6.24.12-3.48.12-6.12.36zm32.28 34.92q-2.16 4.08-5.16 8.88-2.88 4.68-6.24 9.48-3.24 4.68-6.36 8.76-3 3.96-5.4 6.6l-15.72-10.68q3-2.88 6.12-6.6t6.12-7.8 5.52-8.28q2.64-4.2 4.56-8.16zm52.32-8.4q2.28 2.88 5.04 6.96 2.76 3.96 5.64 8.52 2.88 4.44 5.4 8.76 2.52 4.2 4.32 7.44l-17.04 9.36q-2.04-4.08-4.56-8.52-2.4-4.56-5.04-9-2.52-4.44-5.04-8.28t-4.56-6.6zm31.32 2.4q16.44-4.2 29.4-9.6t23.04-11.52q6.12-3.72 12.6-8.88t12.24-10.56q5.76-5.52 9.48-10.08l15.72 15q-5.64 5.52-12.6 11.28-6.84 5.64-14.28 10.8-7.32 5.16-14.4 9.36-6.96 3.96-15.48 8.16t-18 7.92q-9.36 3.72-18.72 6.48zm49.56-11.76 20.88-4.56v53.64q0 2.88.12 6.36.12 3.36.36 6.36t.72 4.68h-23.04q.24-1.68.48-4.68t.36-6.36q.12-3.48.12-6.36zm82.44-32.88q3.12 2.16 7.32 5.4a189 189 0 0 1 8.64 6.84q4.56 3.6 8.52 7.2 4.08 3.48 6.72 6.36l-14.88 15.24q-2.4-2.64-6.12-6.12-3.72-3.6-8.04-7.32a215 215 0 0 0-8.52-7.2q-4.2-3.36-7.44-5.64zm-17.76 79.68q8.88-1.2 16.8-3.36 8.04-2.16 15.12-5.04t12.96-6.24q10.8-6.24 19.68-14.16 8.88-8.04 15.48-16.68 6.72-8.76 10.68-17.16l11.28 20.52q-4.8 8.52-11.88 16.8-7.08 8.16-15.96 15.48-8.76 7.32-18.84 13.2-6.12 3.6-13.2 6.84-7.08 3.12-14.64 5.4-7.56 2.4-15.12 3.6zm124.8 1.44v-68.52q0-3.6-.36-7.92t-1.08-7.68h22.68q-.36 3.36-.84 7.32-.36 3.96-.36 8.28V187q0 1.56.12 4.92.24 3.24.6 6.84t.6 6.36h-22.8q.6-3.84.96-9.12.48-5.28.48-9m15.72-53.28q6 1.56 13.56 4.08 7.56 2.4 15.24 5.16t14.28 5.4q6.72 2.64 10.8 4.68l-8.28 20.28q-5.04-2.64-11.04-5.16-5.88-2.64-12-5.04-6-2.52-11.88-4.56-5.76-2.16-10.68-3.84z"/><path fill="#050E7C" d="m350.12 112.48-8.773 8.188q.284.301.585.585zm8.28 0 8.485 8.485zm0-8.28-8.773 8.188q.284.302.585.585zm-8.28 0 8.485 8.485zm-8.16-3.12 10.323 6.118h.001zm5.16-5.16 6.118 10.324v-.001zm14.4 0-6.118 10.323v.001zm5.16 5.16 10.324-6.118zm0 14.4 10.324 6.118zm-5.16 5.16-6.118-10.324zm-14.4 0 6.118-10.324zm-5.16-5.16 10.324-6.118h-.001zM325.52 103l11.879 1.697A11.997 11.997 0 0 0 325.52 91zm-.48 3-11.837-1.973zm-.6 4.56-11.94-1.194zm-3.72 93-8.335-8.633-.15.148zm-17.52 3.24-.414 11.993h.014zm-6.96-.36-.855 11.97.029.002zm-6.72-.6-11.94 1.202a12 12 0 0 0 10.662 10.73zm-1.8-17.88 2.211-11.794a11.997 11.997 0 0 0-14.151 12.996zm7.32 1.08-1.235 11.936q.218.023.437.037zm8.88-.6-8.485-8.485zm1.08-3.24 11.983.631q.017-.316.017-.631zm0-4.08-11.992-.444a13 13 0 0 0-.008.444zm-.24-72.72-11.944 1.156.004.038zm-.72-5.4V91a12 12 0 0 0-11.734 14.514zm-40.08 18.6 1.552-11.899A11.998 11.998 0 0 0 251.96 121.6zm6.12.72-1.278 11.932q.225.024.452.04zm86.52 0-.749-11.977zm6.36-.6h12a12 12 0 0 0-13.697-11.879zm0 18.96-.957 11.962a12 12 0 0 0 12.957-11.962zm-6.6-.36.4-11.993zm-86.28 0-.4-11.993h-.014zm-6.12.36h-12a11.997 11.997 0 0 0 13.086 11.951zm32.28 15.84 10.605 5.615a12 12 0 0 0-5.492-16.471zm-5.16 8.88-10.176-6.36-.044.071zm-6.24 9.48-9.831-6.882-.035.051zm-6.36 8.76-9.532-7.289-.033.043zm-5.4 6.6-6.744 9.926a12 12 0 0 0 15.623-1.854zm-15.72-10.68-8.31-8.657a12 12 0 0 0 1.566 18.583zm12.24-14.4 9.668 7.109zm5.52-8.28-10.16-6.386-.13.212zm4.56-8.16 5.113-10.856c-5.948-2.802-13.042-.295-15.911 5.621zm68.88-.6 9.409-7.448a12 12 0 0 0-15.155-3.087zm5.04 6.96-9.939 6.724.094.138zm5.64 8.52-10.146 6.408.078.122zm5.4 8.76-10.365 6.046.075.128zm4.32 7.44 5.777 10.518a12 12 0 0 0 4.713-16.346zm-17.04 9.36-10.733 5.367a11.998 11.998 0 0 0 16.51 5.151zm-4.56-8.52-10.619 5.589q.089.168.183.334zm-5.04-9-10.436 5.923q.06.106.122.21zm-5.04-8.28-10.033 6.584zm-4.56-6.6-5.746-10.535a12 12 0 0 0-3.904 17.668zm15.72-48.48h-12c0 4.726 1.773 9.03 4.907 12.388l8.773-8.188 8.773-8.188c.363.39.79.984 1.109 1.781.321.803.438 1.575.438 2.207zm1.68 4.2-8.188 8.773c3.358 3.134 7.662 4.907 12.388 4.907v-24c.632 0 1.404.117 2.207.438a5.8 5.8 0 0 1 1.781 1.109zm4.2 1.68v12c4.746 0 9.169-1.799 12.565-5.195l-8.485-8.485-8.485-8.485a6.3 6.3 0 0 1 2.056-1.351 6.2 6.2 0 0 1 2.349-.484zm4.08-1.68 8.485 8.485c3.299-3.299 5.315-7.694 5.315-12.685h-24c0-.742.148-1.608.52-2.477a5.8 5.8 0 0 1 1.195-1.808zm1.8-4.2h12c0-5.023-2.052-9.53-5.612-12.853L358.4 104.2l-8.188 8.773a6.35 6.35 0 0 1-1.441-2.069 6.6 6.6 0 0 1-.571-2.624zm-1.8-4.08 8.773-8.188c-3.323-3.56-7.83-5.612-12.853-5.612v24a6.6 6.6 0 0 1-2.624-.571 6.35 6.35 0 0 1-2.069-1.441zm-4.08-1.8v-12c-4.991 0-9.386 2.016-12.685 5.315l8.485 8.485 8.485 8.485a5.8 5.8 0 0 1-1.808 1.195 6.4 6.4 0 0 1-2.477.52zm-4.2 1.8-8.485-8.485c-3.396 3.396-5.195 7.819-5.195 12.565h24a6.2 6.2 0 0 1-.484 2.349 6.3 6.3 0 0 1-1.351 2.056zm-10.08 4.08h12c0-.603.118-.871.243-1.082l-10.323-6.118-10.323-6.118c-2.435 4.11-3.597 8.641-3.597 13.318zm1.92-7.2 10.324 6.118c.253-.428.526-.701.954-.954L347.12 95.92l-6.118-10.323a26.5 26.5 0 0 0-9.365 9.365zm5.16-5.16 6.118 10.323c.211-.125.479-.243 1.082-.243V82c-4.677 0-9.209 1.162-13.318 3.597zm7.2-1.92v12c.603 0 .871.118 1.082.243l6.118-10.323 6.118-10.323C363.529 83.162 358.997 82 354.32 82zm7.2 1.92-6.118 10.324c.428.253.701.526.955.954l10.323-6.118 10.324-6.118a26.5 26.5 0 0 0-9.366-9.365zm5.16 5.16-10.323 6.118c.125.211.243.479.243 1.082h24c0-4.677-1.162-9.209-3.596-13.318zm1.92 7.2h-12c0 .603-.118.871-.243 1.082l10.323 6.118 10.324 6.118c2.434-4.109 3.596-8.641 3.596-13.318zm-1.92 7.2-10.323-6.118a2.5 2.5 0 0 1-.955.954l6.118 10.324 6.118 10.323a26.5 26.5 0 0 0 9.366-9.365zm-5.16 5.16-6.118-10.324c-.211.126-.479.244-1.082.244v24c4.677 0 9.209-1.162 13.318-3.597zm-7.2 1.92v-12c-.603 0-.871-.118-1.082-.244l-6.118 10.324-6.118 10.323c4.109 2.435 8.641 3.597 13.318 3.597zm-7.2-1.92 6.118-10.324a2.5 2.5 0 0 1-.954-.954l-10.324 6.118-10.323 6.118a26.5 26.5 0 0 0 9.365 9.365zm-5.16-5.16 10.323-6.118c-.125-.211-.243-.479-.243-1.082h-24c0 4.677 1.162 9.209 3.597 13.318zM325.52 103l-11.879-1.697a153 153 0 0 1-.438 2.724L325.04 106l11.837 1.973c.239-1.433.42-2.561.522-3.276zm-.48 3-11.837-1.973a82 82 0 0 0-.703 5.339l11.94 1.194 11.94 1.194q.207-2.046.497-3.781zm-.6 4.56-11.94-1.194c-.185 1.842-.3 3.625-.3 5.274h24c0-.591.045-1.528.18-2.886zm-.24 4.08h-12v8.16h24v-8.16zm0 8.16h-12v8.88h24v-8.88zm0 8.88h-12v8.28h24v-8.28zm0 8.28h-12v6.6h24v-6.6zm0 6.6h-12v9.48h24v-9.48zm0 9.48h-12v10.8h24v-10.8zm0 10.8h-12v11.04h24v-11.04zm0 11.04h-12v9.72h24v-9.72zm0 9.72h-12v7.08h24v-7.08zm0 7.08h-12c0 .29-.023.471-.038.56-.016.086-.025.092-.005.042a1.1 1.1 0 0 1 .228-.355l8.335 8.633 8.335 8.633c5-4.828 7.145-11.08 7.145-17.513zm-3.48 8.88-8.485-8.485c.396-.396.689-.464.51-.405-.237.077-.949.25-2.345.25v24c6.347 0 13.451-1.521 18.805-6.875zm-10.32 3.36v-12q-3.4 0-6.8-.113l-.4 11.993-.4 11.993q3.8.127 7.6.127zm-7.2-.12.414-11.993a189 189 0 0 1-6.548-.339l-.826 11.972-.826 11.972q3.686.254 7.372.381zm-6.96-.36.855-11.97a176 176 0 0 1-6.297-.562l-1.278 11.932-1.278 11.932q3.57.382 7.143.638zm-6.72-.6 11.94-1.202-1.8-17.88-11.94 1.202-11.94 1.202 1.8 17.88zm-1.8-17.88-2.211 11.794c2.846.534 5.614.945 8.296 1.222l1.235-11.936 1.235-11.936a79 79 0 0 1-6.344-.938zm7.32 1.08-.798 11.973c2.515.168 4.735.267 6.558.267v-24c-1.057 0-2.677-.061-4.962-.213zm5.76.24v12c2.111 0 7.459-.209 11.605-4.355l-8.485-8.485-8.485-8.485c1.646-1.647 3.357-2.255 4.165-2.472.819-.221 1.302-.203 1.2-.203zm3.12-.84 8.485 8.485c3.764-3.763 4.441-8.486 4.578-11.094L305 185.2l-11.983-.631c0-.011.006-.122.039-.314.032-.19.097-.502.23-.9.261-.783.856-2.108 2.149-3.4zm1.08-3.24h12v-4.08h-24v4.08zm0-4.08 11.992.444c.087-2.354.128-5.11.128-8.244h-24c0 2.946-.039 5.39-.112 7.356zm.12-7.8h12v-9.84h-24v9.84zm0-9.84h12V153.4h-24v10.08zm0-10.08h12V145h-24v8.4zm0-8.4h12v-5.04h-24V145zm0-5.04h12v-6.72h-24v6.72zm0-6.72h12v-9.72h-24v9.72zm0-9.72h12v-9h-24v9zm0-9h12c0-2.209-.155-4.672-.42-7.314l-11.94 1.194-11.94 1.194c.215 2.158.3 3.775.3 4.926zm-.36-6.12 11.944-1.156c-.245-2.535-.536-4.919-.93-6.758L304.04 103l-11.734 2.514c.086.401.275 1.617.51 4.042zm-.72-5.4v12h21.48V91h-21.48zm-40.08 18.6-1.552 11.899q2.923.381 6.394.753l1.278-11.932 1.278-11.932a257 257 0 0 1-5.846-.687zm6.12.72-.826 11.972c2.527.174 4.89.268 7.066.268v-24c-1.504 0-3.301-.066-5.414-.212zm6.24.24v12h5.88v-24h-5.88zm5.88 0v12h10.32v-24H282.2zm10.32 0v12h12.96v-24h-12.96zm12.96 0v12h13.92v-24h-13.92zm13.92 0v12h13.2v-24h-13.2zm13.2 0v12h10.8v-24h-10.8zm10.8 0v12h6.6v-24h-6.6zm6.6 0v12c2.165 0 4.628-.093 7.349-.263l-.749-11.977-.749-11.977c-2.399.15-4.336.217-5.851.217zm6.6-.24.749 11.977c2.734-.171 5.198-.396 7.308-.698l-1.697-11.879-1.697-11.879c-1.25.178-3.026.353-5.412.502zm6.36-.6h-12v18.96h24v-18.96zm0 18.96.957-11.962a155 155 0 0 0-7.157-.391l-.4 11.993-.4 11.993c2.249.075 4.26.186 6.043.329zm-6.6-.36.4-11.993a203 203 0 0 0-6.64-.127v24c1.589 0 3.529.036 5.84.113zm-6.24-.12v-12h-6.6v24h6.6zm-6.6 0v-12h-10.68v24h10.68zm-10.68 0v-12h-13.08v24h13.08zm-13.08 0v-12h-13.92v24h13.92zm-13.92 0v-12h-13.08v24h13.08zm-13.08 0v-12h-10.32v24h10.32zm-10.32 0v-12h-6.12v24h6.12zm-6.12 0v-12c-1.931 0-4.151.044-6.64.127l.4 11.993.4 11.993c2.311-.077 4.251-.113 5.84-.113zm-6.24.12-.414-11.993c-2.479.086-4.752.217-6.792.402l1.086 11.951 1.086 11.951a98 98 0 0 1 5.448-.318zm-6.12.36h12V121.6h-24v19.08zm32.28 15.84-10.605-5.615c-1.28 2.418-2.851 5.126-4.731 8.135l10.176 6.36 10.176 6.36c2.12-3.391 3.989-6.603 5.589-9.625zm-5.16 8.88-10.22-6.289a180 180 0 0 1-5.851 8.887l9.831 6.882 9.831 6.882a205 205 0 0 0 6.629-10.073zm-6.24 9.48-9.866-6.831a219 219 0 0 1-6.026 8.302l9.532 7.289 9.532 7.289a240 240 0 0 0 6.694-9.218zm-6.36 8.76-9.565-7.246c-1.861 2.456-3.428 4.359-4.714 5.774l8.879 8.072 8.879 8.072c1.914-2.105 3.947-4.602 6.086-7.426zm-5.4 6.6 6.744-9.926-15.72-10.68-6.744 9.926-6.744 9.926 15.72 10.68zm-15.72-10.68 8.31 8.657c2.358-2.264 4.692-4.788 7.004-7.546l-9.194-7.711-9.194-7.711c-1.848 2.202-3.594 4.078-5.236 5.654zm6.12-6.6 9.194 7.711a167 167 0 0 0 6.594-8.402l-9.668-7.109-9.668-7.109a143 143 0 0 1-5.646 7.198zm6.12-7.8 9.668 7.109a119 119 0 0 0 6.142-9.215l-10.29-6.174-10.29-6.174a94 94 0 0 1-4.898 7.345zm5.52-8.28 10.16 6.386c1.964-3.126 3.704-6.23 5.198-9.311l-10.798-5.235-10.798-5.235c-1.066 2.199-2.366 4.535-3.922 7.009zm4.56-8.16-5.113 10.856 16.56 7.8 5.113-10.856 5.113-10.856-16.56-7.8zm68.88-.6-9.409 7.448c1.284 1.622 2.785 3.686 4.51 6.236l9.939-6.724 9.939-6.724c-1.955-2.89-3.814-5.466-5.57-7.684zm5.04 6.96-9.845 6.862a214 214 0 0 1 5.339 8.066l10.146-6.408 10.146-6.408a238 238 0 0 0-5.941-8.974zm5.64 8.52-10.068 6.53a206 206 0 0 1 5.103 8.276l10.365-6.046 10.365-6.046a228 228 0 0 0-5.697-9.244zm5.4 8.76-10.29 6.174c1.632 2.72 3.002 5.08 4.12 7.094l10.49-5.828 10.49-5.828a276 276 0 0 0-4.52-7.786zm4.32 7.44-5.777-10.518-17.04 9.36 5.777 10.518 5.777 10.518 17.04-9.36zm-17.04 9.36 10.733-5.367a196 196 0 0 0-4.857-9.076l-10.436 5.923-10.436 5.923a172 172 0 0 1 4.263 7.964zm-4.56-8.52 10.619-5.589a211 211 0 0 0-5.345-9.544l-10.314 6.133-10.314 6.133q2.48 4.172 4.735 8.456zm-5.04-9 10.436-5.923a162 162 0 0 0-5.443-8.941l-10.033 6.584-10.033 6.584a139 139 0 0 1 4.637 7.619zm-5.04-8.28 10.033-6.584c-1.765-2.688-3.415-5.081-4.943-7.149l-9.65 7.133-9.65 7.133c1.192 1.612 2.582 3.619 4.177 6.051zm-4.56-6.6 5.746 10.535 15.84-8.64-5.746-10.535-5.746-10.535-15.84 8.64zm47.16-6.24-2.97-11.627a12.003 12.003 0 0 0-7.805 16.909zm29.4-9.6-4.615-11.077zm23.04-11.52 6.228 10.257.005-.003zm12.6-8.88-7.475-9.387zm12.24-10.56 8.207 8.754.096-.09zm9.48-10.08 8.284-8.682a12 12 0 0 0-17.582 1.097zm15.72 15 8.394 8.576a12.003 12.003 0 0 0-.11-17.258zm-12.6 11.28 7.634 9.258.017-.013zm-14.28 10.8-6.839-9.861-.075.053zm-14.4 9.36 5.934 10.43.188-.109zm-15.48 8.16-5.306-10.763zm-18 7.92-4.383-11.171-.049.019zm-18.72 6.48-10.775 5.282a12 12 0 0 0 14.169 6.228zm40.56-30.12-2.56-11.724a12 12 0 0 0-9.44 11.724zm20.88-4.56h12a12 12 0 0 0-14.56-11.724zm.12 60-11.993.414.001.014zm.36 6.36 11.962-.957zm.72 4.68v12a11.998 11.998 0 0 0 11.538-15.297zm-23.04 0-11.879-1.697a11.999 11.999 0 0 0 11.879 13.697zm.48-4.68 11.962.957zm.36-6.36 11.992.428.001-.014zm-49.44-43.68 2.97 11.627c11.41-2.915 21.774-6.287 31.045-10.15l-4.615-11.077-4.615-11.077c-8.009 3.337-17.245 6.365-27.755 9.05zm29.4-9.6 4.615 11.077c9.096-3.79 17.33-7.894 24.653-12.34L432.32 129.4l-6.228-10.257c-6.117 3.714-13.243 7.29-21.427 10.7zm23.04-11.52 6.233 10.254c4.573-2.779 9.186-6.039 13.842-9.747l-7.475-9.387-7.475-9.387c-3.984 3.172-7.77 5.832-11.358 8.013zm12.6-8.88 7.475 9.387a212 212 0 0 0 12.972-11.193l-8.207-8.754-8.207-8.754a189 189 0 0 1-11.508 9.927zm12.24-10.56 8.303 8.664c4.078-3.909 7.599-7.633 10.475-11.158l-9.298-7.586-9.298-7.585c-2.084 2.554-4.883 5.55-8.485 9.001zm9.48-10.08-8.284 8.682 15.72 15 8.284-8.682 8.284-8.682-15.72-15zm15.72 15-8.394-8.576c-3.49 3.416-7.438 6.954-11.857 10.611l7.651 9.245 7.651 9.245c4.861-4.023 9.313-8.005 13.343-11.949zm-12.6 11.28-7.634-9.258a203 203 0 0 1-13.485 10.197l6.839 9.861 6.839 9.861a227 227 0 0 0 15.075-11.403zm-14.28 10.8-6.914-9.808q-6.968 4.91-13.608 8.847l6.122 10.321 6.122 10.321q7.52-4.463 15.192-9.873zm-14.4 9.36-5.934-10.43c-4.4 2.504-9.347 5.113-14.852 7.827l5.306 10.763 5.306 10.763c5.855-2.886 11.229-5.717 16.108-8.493zm-15.48 8.16-5.306-10.763q-8.035 3.962-17.077 7.512L407.6 162.4l4.383 11.171q9.918-3.89 18.923-8.328zm-18 7.92-4.432-11.152a204 204 0 0 1-17.682 6.122l3.394 11.51 3.394 11.51a228 228 0 0 0 19.758-6.838zm-18.72 6.48 10.775-5.282-9-18.36-10.775 5.282-10.775 5.282 9 18.36zm40.56-30.12 2.56 11.724 20.88-4.56-2.56-11.724-2.56-11.724-20.88 4.56zm20.88-4.56h-12v53.64h24V134.2zm0 53.64h-12q0 3.126.127 6.774l11.993-.414 11.993-.414a174 174 0 0 1-.113-5.946zm.12 6.36-11.992.428q.127 3.596.39 6.889l11.962-.957 11.962-.957a133 133 0 0 1-.33-5.831zm.36 6.36-11.962.957c.185 2.312.504 4.782 1.144 7.02l11.538-3.297 11.538-3.297c.017.059-.029-.093-.098-.538a26 26 0 0 1-.198-1.802zm.72 4.68v-12h-23.04v24h23.04zm-23.04 0 11.879 1.697c.212-1.484.396-3.33.563-5.42l-11.962-.957-11.962-.957c-.153 1.91-.289 3.184-.397 3.94zm.48-4.68 11.962.957q.263-3.293.39-6.889l-11.992-.428-11.992-.428a133 133 0 0 1-.33 5.831zm.36-6.36 11.993.414q.126-3.648.127-6.774h-24q0 2.634-.113 5.946zm.12-6.36h12v-49.08h-24v49.08zm82.44-81.96 6.831-9.866a12 12 0 0 0-15.597 1.67zm7.32 5.4-7.33 9.501.174.132zm8.64 6.84-7.707 9.198q.135.112.271.221zm8.52 7.2-8.072 8.879q.14.128.285.251zm6.72 6.36 8.586 8.383c4.45-4.557 4.564-11.797.26-16.492zm-14.88 15.24-8.879 8.072a12 12 0 0 0 17.465.311zm-6.12-6.12-8.345 8.623.147.14zm-8.04-7.32-7.972 8.969.142.124zm-15.96-12.84-8.766-8.195a12.002 12.002 0 0 0 1.86 18.009zm-3.96 64.92-1.607-11.892a12 12 0 0 0-8.483 18.387zm16.8-3.36-3.113-11.589-.044.012zm15.12-5.04-4.522-11.116zm12.96-6.24 5.954 10.419.049-.029zm19.68-14.16 7.987 8.956.067-.06zm15.48-16.68-9.521-7.304-.015.02zm10.68-17.16 10.516-5.781a12 12 0 0 0-21.37.664zm11.28 20.52 10.455 5.89a12 12 0 0 0 .061-11.671zm-11.88 16.8 9.064 7.864.056-.065zm-15.96 15.48-7.633-9.26-.062.052zm-18.84 13.2-6.046-10.365-.038.022zm-13.2 6.84 4.839 10.981.154-.069zm-14.64 5.4-3.465-11.489-.166.052zm-15.12 3.6-10.09 6.495a12 12 0 0 0 11.971 5.357zm5.4-98.88-6.831 9.866c1.859 1.287 4.126 2.956 6.821 5.035l7.33-9.501 7.33-9.501c-2.905-2.241-5.518-4.172-7.819-5.765zm7.32 5.4-7.156 9.633q3.89 2.889 8.089 6.405l7.707-9.198 7.707-9.198a201 201 0 0 0-9.191-7.275zm8.64 6.84-7.436 9.419a149 149 0 0 1 7.884 6.66l8.072-8.879 8.072-8.879a173 173 0 0 0-9.156-7.74zm8.52 7.2-7.787 9.13c2.473 2.11 4.329 3.885 5.661 5.339l8.846-8.109 8.846-8.109c-2.188-2.386-4.812-4.851-7.779-7.381zm6.72 6.36-8.586-8.383-14.88 15.24 8.586 8.383 8.586 8.383 14.88-15.24zm-14.88 15.24 8.879-8.072c-1.887-2.077-4.175-4.355-6.801-6.811l-8.198 8.763-8.198 8.763c2.334 2.184 4.126 3.986 5.439 5.429zm-6.12-6.12 8.345-8.623a199 199 0 0 0-8.555-7.79l-7.83 9.093-7.83 9.093a176 176 0 0 1 7.525 6.85zm-8.04-7.32 7.972-8.969a225 225 0 0 0-8.996-7.601l-7.496 9.37-7.496 9.37a205 205 0 0 1 8.044 6.799zm-8.52-7.2 7.496-9.37c-2.929-2.344-5.612-4.382-8.03-6.084l-6.906 9.814-6.906 9.814c1.902 1.338 4.179 3.06 6.85 5.196zm-7.44-5.64 8.766 8.195 13.8-14.76-8.766-8.195-8.766-8.195-13.8 14.76zm-3.96 64.92 1.607 11.892c6.396-.864 12.517-2.084 18.35-3.675L510.92 182.2l-3.157-11.577c-4.727 1.289-9.806 2.309-15.25 3.045zm16.8-3.36 3.113 11.589c5.797-1.557 11.311-3.391 16.529-5.513l-4.522-11.116-4.522-11.116c-4.222 1.718-8.788 3.244-13.711 4.567zm15.12-5.04 4.522 11.116c5.15-2.096 9.956-4.402 14.392-6.937L539 170.92l-5.954-10.419c-3.404 1.945-7.238 3.799-11.528 5.543zm12.96-6.24 6.003 10.39c7.875-4.549 15.105-9.744 21.664-15.594l-7.987-8.956-7.987-8.956c-5.281 4.71-11.171 8.955-17.696 12.726zm19.68-14.16 8.054 8.896c6.408-5.802 12.076-11.895 16.962-18.292l-9.536-7.284-9.536-7.284c-3.914 5.123-8.566 10.15-13.998 15.068zm15.48-16.68 9.521 7.304c4.907-6.396 8.947-12.844 12.013-19.347l-10.854-5.117-10.854-5.117c-2.214 4.697-5.294 9.689-9.347 14.973zm10.68-17.16-10.516 5.781 11.28 20.52 10.516-5.781 10.516-5.781-11.28-20.52zm11.28 20.52-10.455-5.89c-2.778 4.93-6.275 9.897-10.545 14.891l9.12 7.799 9.12 7.799c5.17-6.046 9.593-12.279 13.215-18.709zm-11.88 16.8-9.064-7.864c-4.255 4.904-9.091 9.602-14.529 14.084l7.633 9.26 7.633 9.26c6.402-5.278 12.206-10.9 17.391-16.876zm-15.96 15.48-7.695-9.208a125 125 0 0 1-17.191 12.043l6.046 10.365 6.046 10.365a149 149 0 0 0 20.489-14.357zm-18.84 13.2-6.084-10.343c-3.695 2.173-7.727 4.266-12.109 6.271l4.993 10.912 4.993 10.912c5.058-2.315 9.826-4.782 14.291-7.409zm-13.2 6.84-4.839-10.981a116 116 0 0 1-13.266 4.892l3.465 11.489 3.465 11.489a140 140 0 0 0 16.014-5.908zm-14.64 5.4-3.631-11.437a91.6 91.6 0 0 1-13.37 3.185l1.881 11.852 1.881 11.852a115.6 115.6 0 0 0 16.87-4.015zm-15.12 3.6 10.09-6.495-12.36-19.2-10.09 6.495-10.09 6.495 12.36 19.2zm112.08-94.2-11.959.997zm-1.08-7.68v-12a12 12 0 0 0-11.734 14.514zm22.68 0 11.932 1.278A12.003 12.003 0 0 0 640.16 90.88zm-.84 7.32-11.913-1.444q-.021.178-.038.358zm-.24 81.72-11.992.428q.007.23.025.458zm.6 6.84 11.94-1.194zm.6 6.36v12a11.997 11.997 0 0 0 11.955-13.04zm-22.8 0-11.856-1.853a12 12 0 0 0 11.856 13.853zm.96-9.12-11.951-1.086-.021.27zm16.2-62.28 3.02-11.614a12 12 0 0 0-15.02 11.614zm13.56 4.08-3.795 11.384.164.053zm15.24 5.16-4.058 11.293zm14.28 5.4-4.457 11.142.069.027zm10.8 4.68 11.11 4.536a12 12 0 0 0-5.743-15.269zm-8.28 20.28-5.568 10.63a12 12 0 0 0 16.678-6.094zm-11.04-5.16-4.915 10.947q.133.06.268.117zm-12-5.04-4.647 11.064q.132.055.266.108zm-11.88-4.56-4.213 11.236q.139.053.28.101zm-10.68-3.84h-12a12 12 0 0 0 8.122 11.356zM618.92 187h12v-7.92h-24V187zm0-7.92h12v-12.24h-24v12.24zm0-12.24h12v-14.16h-24v14.16zm0-14.16h12V138.4h-24v14.28zm0-14.28h12v-12.12h-24v12.12zm0-12.12h12v-7.8h-24v7.8zm0-7.8h12c0-2.791-.139-5.769-.401-8.917l-11.959.997-11.959.997c.218 2.612.319 4.914.319 6.923zm-.36-7.92 11.959-.997c-.273-3.265-.695-6.347-1.305-9.197l-11.734 2.514-11.734 2.514c.35 1.63.648 3.668.855 6.163zm-1.08-7.68v12h22.68v-24h-22.68zm22.68 0-11.932-1.278q-.349 3.263-.821 7.154l11.913 1.444 11.913 1.444q.488-4.03.859-7.486zm-.84 7.32-11.951-1.086q-.41 4.546-.409 9.366h24q.002-3.82.311-7.194zm-.36 8.28h-12v7.8h24v-7.8zm0 7.8h-12v12.12h24v-12.12zm0 12.12h-12v14.16h24V138.4zm0 14.16h-12v14.28h24v-14.28zm0 14.28h-12v12.24h24v-12.24zm0 12.24h-12V187h24v-7.92zm0 7.92h-12c0 1.268.047 3.089.128 5.348l11.992-.428 11.992-.428c-.079-2.221-.112-3.68-.112-4.492zm.12 4.92-11.967.886q.252 3.411.627 7.148l11.94-1.194 11.94-1.194q-.345-3.463-.573-6.532zm.6 6.84-11.94 1.194q.354 3.543.585 6.206l11.955-1.04 11.955-1.04a516 516 0 0 0-.615-6.514zm.6 6.36v-12h-22.8v24h22.8zm-22.8 0 11.856 1.853c.469-3.001.82-6.404 1.076-10.157L618.44 196l-11.972-.816c-.224 3.287-.513 5.964-.844 8.083zm.96-9.12 11.951 1.086c.34-3.743.529-7.127.529-10.086h-24c0 2.001-.131 4.617-.431 7.914zm16.2-62.28-3.02 11.614c3.678.956 7.933 2.233 12.785 3.85L648.2 137.8l3.795-11.384c-5.228-1.743-10.013-3.186-14.335-4.31zm13.56 4.08-3.631 11.437a417 417 0 0 1 14.813 5.016l4.058-11.293 4.058-11.293a439 439 0 0 0-15.667-5.304zm15.24 5.16-4.058 11.293a418 418 0 0 1 13.881 5.249l4.457-11.142 4.457-11.142a445 445 0 0 0-14.679-5.551zm14.28 5.4-4.388 11.169c4.315 1.695 7.549 3.108 9.821 4.244l5.367-10.733 5.367-10.733c-3.168-1.584-7.134-3.291-11.779-5.116zm10.8 4.68-11.11-4.536-8.28 20.28 11.11 4.536 11.11 4.536 8.28-20.28zm-8.28 20.28 5.568-10.63c-3.7-1.938-7.692-3.801-11.961-5.594L669.2 168.16l-4.647 11.064c3.731 1.567 7.099 3.144 10.119 4.726zm-11.04-5.16 4.915-10.947a281 281 0 0 0-12.534-5.265L657.2 163.12l-4.381 11.172a258 258 0 0 1 11.466 4.815zm-12-5.04 4.647-11.064a212 212 0 0 0-12.594-4.833l-3.933 11.337-3.933 11.337a188 188 0 0 1 11.166 4.287zm-11.88-4.56 4.213-11.236a395 395 0 0 0-11.015-3.96l-3.878 11.356-3.878 11.356a373 373 0 0 1 10.345 3.72zm-10.68-3.84h12v-21h-24v21z" mask="url(#d)"/></g><mask id="e" width="111" height="57" x="148" y="161" fill="#000" maskUnits="userSpaceOnUse"><path fill="#fff" d="M148 161h111v57H148z"/><path d="M156.15 178.85q1.4-.25 3.3-.7 1.9-.5 3.25-.85 1.35-.4 3.8-1.15a104 104 0 0 1 5.45-1.6 76 76 0 0 1 6.2-1.35q3.15-.55 5.9-.55 4.75 0 8.55 1.75t6.05 5.15q2.25 3.35 2.25 8.25 0 3.3-1.2 6.2t-3.6 5.3q-2.35 2.4-5.85 4.2t-8.1 2.9-10.25 1.35l-3.55-8.05q5.2-.1 9.55-.9t7.55-2.25q3.2-1.5 4.95-3.7 1.8-2.25 1.8-5.2 0-2.2-.95-3.9-.95-1.75-2.85-2.75t-4.7-1q-2.05 0-4.6.5-2.5.5-5.2 1.35a82 82 0 0 0-5.3 1.8 102 102 0 0 0-4.95 1.95q-2.3.95-4.1 1.75zm78.2-6.2a206 206 0 0 1-1.35 8.1q-.8 4.3-2.25 9-1.45 5-3.45 8.75t-4.5 5.85q-2.45 2.1-5.4 2.1-3.1 0-5.6-2-2.45-2.05-3.9-5.5-1.4-3.5-1.4-7.75 0-4.45 1.8-8.4a22.3 22.3 0 0 1 5-7.05q3.2-3.05 7.5-4.8t9.3-1.75q4.8 0 8.6 1.55 3.85 1.5 6.55 4.25 2.75 2.75 4.2 6.45 1.45 3.65 1.45 7.9 0 5.25-2.1 9.5-2.1 4.2-6.35 7.05-4.25 2.8-10.75 3.9l-4.6-7.2a50 50 0 0 0 2.7-.4l2.2-.5q2.4-.6 4.35-1.7a12.7 12.7 0 0 0 3.35-2.7 11.5 11.5 0 0 0 2.15-3.65q.75-2.1.75-4.55 0-2.9-.85-5.25-.8-2.35-2.45-4.05-1.6-1.7-3.95-2.6t-5.4-.9q-3.9 0-6.85 1.4-2.9 1.35-4.85 3.55-1.95 2.15-2.95 4.6-.95 2.45-.95 4.55 0 2.15.45 3.65.45 1.45 1.15 2.2.75.75 1.65.75 1 0 1.85-1 .9-1 1.7-2.95.85-2 1.75-4.9 1.15-3.55 1.95-7.65a80 80 0 0 0 1.15-8.1z"/></mask><path fill="#000" d="M156.15 178.85q1.4-.25 3.3-.7 1.9-.5 3.25-.85 1.35-.4 3.8-1.15a104 104 0 0 1 5.45-1.6 76 76 0 0 1 6.2-1.35q3.15-.55 5.9-.55 4.75 0 8.55 1.75t6.05 5.15q2.25 3.35 2.25 8.25 0 3.3-1.2 6.2t-3.6 5.3q-2.35 2.4-5.85 4.2t-8.1 2.9-10.25 1.35l-3.55-8.05q5.2-.1 9.55-.9t7.55-2.25q3.2-1.5 4.95-3.7 1.8-2.25 1.8-5.2 0-2.2-.95-3.9-.95-1.75-2.85-2.75t-4.7-1q-2.05 0-4.6.5-2.5.5-5.2 1.35a82 82 0 0 0-5.3 1.8 102 102 0 0 0-4.95 1.95q-2.3.95-4.1 1.75zm78.2-6.2a206 206 0 0 1-1.35 8.1q-.8 4.3-2.25 9-1.45 5-3.45 8.75t-4.5 5.85q-2.45 2.1-5.4 2.1-3.1 0-5.6-2-2.45-2.05-3.9-5.5-1.4-3.5-1.4-7.75 0-4.45 1.8-8.4a22.3 22.3 0 0 1 5-7.05q3.2-3.05 7.5-4.8t9.3-1.75q4.8 0 8.6 1.55 3.85 1.5 6.55 4.25 2.75 2.75 4.2 6.45 1.45 3.65 1.45 7.9 0 5.25-2.1 9.5-2.1 4.2-6.35 7.05-4.25 2.8-10.75 3.9l-4.6-7.2a50 50 0 0 0 2.7-.4l2.2-.5q2.4-.6 4.35-1.7a12.7 12.7 0 0 0 3.35-2.7 11.5 11.5 0 0 0 2.15-3.65q.75-2.1.75-4.55 0-2.9-.85-5.25-.8-2.35-2.45-4.05-1.6-1.7-3.95-2.6t-5.4-.9q-3.9 0-6.85 1.4-2.9 1.35-4.85 3.55-1.95 2.15-2.95 4.6-.95 2.45-.95 4.55 0 2.15.45 3.65.45 1.45 1.15 2.2.75.75 1.65.75 1 0 1.85-1 .9-1 1.7-2.95.85-2 1.75-4.9 1.15-3.55 1.95-7.65a80 80 0 0 0 1.15-8.1z"/><path fill="#fff" d="m156.15 178.85-1.406-7.875a8 8 0 0 0-6.022 10.846zm3.3-.7 1.844 7.785.192-.048zm3.25-.85 2.008 7.744q.132-.035.265-.074zm3.8-1.15 2.342 7.65.141-.045zm5.45-1.6-2.03-7.738-.031.008zm6.2-1.35-1.376-7.881zm14.45 1.2-3.346 7.266zm6.05 5.15-6.671 4.415.03.045zM199.7 194l-7.392-3.059zm-3.6 5.3-5.657-5.657-.059.06zm-5.85 4.2 3.659 7.114zm-8.1 2.9 1.861 7.781zm-10.25 1.35-7.32 3.228a8 8 0 0 0 7.674 4.764zm-3.55-8.05-.154-7.999a8 8 0 0 0-7.166 11.227zm9.55-.9-1.447-7.868zm7.55-2.25 3.302 7.287.093-.043zm4.95-3.7-6.247-4.998-.014.018zm.85-9.1-7.031 3.817.047.086zM188.4 181l3.726-7.079zm-9.3-.5-1.539-7.851-.03.006zm-5.2 1.35 2.312 7.659.09-.028zm-5.3 1.8 2.746 7.514.078-.029zm-4.95 1.95 3.054 7.394.078-.033zm-4.1 1.75-7.428 2.971a8 8 0 0 0 10.677 4.339zm-3.4-8.5 1.406 7.875c1.123-.2 2.375-.468 3.738-.79l-1.844-7.785-1.844-7.785a53 53 0 0 1-2.862.61zm3.3-.7 2.036 7.737q1.89-.498 3.222-.843L162.7 177.3l-2.008-7.744q-1.368.356-3.278.857zm3.25-.85 2.273 7.67a498 498 0 0 0 3.869-1.17l-2.342-7.65-2.342-7.65c-1.625.498-2.865.873-3.731 1.13zm3.8-1.15 2.483 7.605a96 96 0 0 1 5.028-1.475l-2.061-7.73-2.061-7.73a112 112 0 0 0-5.872 1.725zm5.45-1.6 2.03 7.738a68 68 0 0 1 5.546-1.207l-1.376-7.881-1.376-7.881a84 84 0 0 0-6.854 1.493zm6.2-1.35 1.376 7.881c1.717-.3 3.219-.431 4.524-.431v-16c-2.362 0-4.793.236-7.276.669zm5.9-.55v8c2.168 0 3.853.395 5.204 1.016l3.346-7.266 3.346-7.266c-3.716-1.712-7.731-2.484-11.896-2.484zm8.55 1.75-3.346 7.266c1.218.562 2.068 1.307 2.725 2.299l6.671-4.415 6.671-4.415c-2.343-3.542-5.526-6.229-9.375-8.001zm6.05 5.15-6.641 4.46c.44.655.891 1.768.891 3.79h16c0-4.511-1.049-8.899-3.609-12.71zm2.25 8.25h-8c0 1.205-.214 2.227-.592 3.141L199.7 194l7.392 3.059c1.222-2.953 1.808-6.064 1.808-9.259zm-1.2 6.2-7.392-3.059c-.366.885-.947 1.785-1.865 2.702l5.657 5.657 5.657 5.657c2.282-2.283 4.101-4.916 5.335-7.898zm-3.6 5.3-5.716-5.597c-.874.892-2.094 1.809-3.793 2.683l3.659 7.114 3.659 7.114c2.968-1.526 5.647-3.409 7.907-5.717zm-5.85 4.2-3.659-7.114c-1.662.854-3.738 1.62-6.302 2.233l1.861 7.781 1.861 7.781c3.569-.854 6.893-2.021 9.898-3.567zm-8.1 2.9-1.861-7.781c-2.487.595-5.389.99-8.743 1.139l.354 7.992.354 7.992c4.179-.185 8.111-.69 11.757-1.561zm-10.25 1.35 7.32-3.228-3.55-8.05-7.32 3.228-7.32 3.228 3.55 8.05zm-3.55-8.05.154 7.999c3.827-.074 7.45-.407 10.843-1.031L177.9 198.8l-1.447-7.868c-2.407.443-5.151.71-8.257.769zm9.55-.9 1.447 7.868c3.383-.622 6.55-1.537 9.405-2.831l-3.302-7.287-3.302-7.287c-1.411.64-3.278 1.224-5.695 1.669zm7.55-2.25 3.395 7.244c2.971-1.393 5.71-3.316 7.816-5.964l-6.261-4.98-6.261-4.98c-.227.285-.788.829-2.084 1.436zm4.95-3.7 6.247 4.998c2.364-2.955 3.553-6.462 3.553-10.198h-16a1 1 0 0 1-.009.151q-.006.025-.001.007l.008-.018c-.001.001-.012.022-.045.062zm1.8-5.2h8c0-2.653-.584-5.329-1.966-7.803l-6.984 3.903-6.984 3.903a.7.7 0 0 1-.076-.185q-.004-.018.003.023.006.041.007.159zm-.95-3.9 7.031-3.817c-1.448-2.667-3.603-4.669-6.155-6.012L188.4 181l-3.726 7.079c.02.011-.054-.026-.166-.135a1.6 1.6 0 0 1-.289-.377zM188.4 181l3.726-7.079c-2.712-1.427-5.643-1.921-8.426-1.921v16c.95 0 1.152.173.974.079zm-4.7-1v-8c-1.999 0-4.06.242-6.139.649l1.539 7.851 1.539 7.851c1.321-.259 2.327-.351 3.061-.351zm-4.6.5-1.569-7.845a58 58 0 0 0-6.033 1.564l2.402 7.631 2.402 7.631c1.556-.49 3.01-.865 4.367-1.136zm-5.2 1.35-2.312-7.659a91 91 0 0 0-5.812 1.974l2.824 7.485 2.824 7.485a75 75 0 0 1 4.788-1.626zm-5.3 1.8-2.746-7.514a111 111 0 0 0-5.336 2.103l3.132 7.361 3.132 7.361a95 95 0 0 1 4.564-1.797zm-4.95 1.95-3.054-7.394a176 176 0 0 0-4.295 1.834l3.249 7.31 3.249 7.31a163 163 0 0 1 3.905-1.666zm-4.1 1.75 7.428-2.971-3.4-8.5-7.428 2.971-7.428 2.971 3.4 8.5zm74.8-14.7 7.918 1.146a7.998 7.998 0 0 0-7.679-9.142zm-1.35 8.1 7.865 1.463zm-2.25 9-7.644-2.358-.039.13zm-3.45 8.75-7.059-3.765zm-4.5 5.85-5.146-6.126-.06.052zm-11 .1-5.134 6.135.136.112zm-3.9-5.5-7.428 2.971.053.129zm.4-16.15 7.28 3.317.015-.034zm5-7.05 5.52 5.791zm7.5-4.8 3.016 7.41zm17.9-.2-3.021 7.407.117.047zm6.55 4.25-5.709 5.605.052.052zm4.2 6.45-7.448 2.919.013.035zm-.65 17.4 7.155 3.578.017-.034zm-6.35 7.05 4.401 6.68.055-.036zm-10.75 3.9-6.742 4.307a8 8 0 0 0 8.077 3.581zm-4.6-7.2-.992-7.938a8 8 0 0 0-5.75 12.245zm2.7-.4 1.431 7.871q.173-.031.342-.07zm2.2-.5 1.773 7.801.167-.04zm4.35-1.7-3.931-6.968zm5.5-6.35 7.513 2.749.021-.058zm-.1-9.8-7.573 2.578.05.143zm-2.45-4.05-5.826 5.483.085.089zm-16.2-2.1 3.376 7.253.054-.026zm-4.85 3.55 5.926 5.375.061-.069zm-2.95 4.6-7.407-3.023-.052.131zm-.5 8.2-7.663 2.299.022.072zm1.15 2.2-5.848 5.459q.093.1.191.198zm3.5-.25-5.946-5.352a6 6 0 0 0-.15.171zm1.7-2.95-7.363-3.129-.038.093zm1.75-4.9-7.611-2.465-.03.094zm1.95-7.65 7.852 1.532.003-.018zm1.15-8.1.239-7.996a8 8 0 0 0-8.208 7.29zm8.35.25-7.917-1.146q-.524 3.62-1.298 7.783L233 180.75l7.865 1.463q.826-4.437 1.403-8.417zm-1.35 8.1-7.865-1.463c-.471 2.53-1.143 5.23-2.029 8.105l7.644 2.358 7.644 2.358c1.047-3.391 1.875-6.691 2.471-9.895zm-2.25 9-7.683-2.228c-.846 2.915-1.804 5.297-2.826 7.213l7.059 3.765 7.059 3.765c1.645-3.084 2.986-6.535 4.074-10.287zm-3.45 8.75-7.059-3.765c-.99 1.857-1.9 2.912-2.587 3.489l5.146 6.126 5.146 6.126c2.646-2.223 4.737-5.068 6.413-8.211zm-4.5 5.85-5.206-6.074a2 2 0 0 1-.225.168c-.04.025-.054.029-.044.025a.4.4 0 0 1 .057-.016q.038-.005.018-.003v16c4.061 0 7.669-1.509 10.606-4.026zm-5.4 2.1v-8a.7.7 0 0 1-.259-.034 1.2 1.2 0 0 1-.343-.213l-4.998 6.247-4.998 6.247c3.035 2.428 6.651 3.753 10.598 3.753zm-5.6-2 5.134-6.135c-.5-.419-1.102-1.139-1.659-2.465l-7.375 3.1-7.375 3.1c1.376 3.274 3.374 6.22 6.141 8.535zm-3.9-5.5 7.428-2.971c-.51-1.276-.828-2.834-.828-4.779h-16c0 3.722.616 7.33 1.972 10.721zm-1.4-7.75h8c0-1.852.367-3.517 1.08-5.083l-7.28-3.317-7.28-3.317c-1.687 3.701-2.52 7.635-2.52 11.717zm1.8-8.4 7.295 3.283a14.3 14.3 0 0 1 3.225-4.542l-5.52-5.791-5.519-5.791a30.3 30.3 0 0 0-6.776 9.558zm5-7.05 5.52 5.791c1.371-1.307 3.01-2.373 4.996-3.181l-3.016-7.41-3.016-7.41c-3.748 1.526-7.108 3.66-10.004 6.419zm7.5-4.8 3.016 7.41c1.837-.748 3.904-1.16 6.284-1.16v-16c-4.287 0-8.42.755-12.316 2.34zm9.3-1.75v8c2.337 0 4.153.376 5.579.957l3.021-7.407 3.021-7.407c-3.64-1.486-7.558-2.143-11.621-2.143zm8.6 1.55-2.904 7.454c1.589.619 2.795 1.433 3.745 2.401L245.25 175l5.709-5.605c-2.65-2.698-5.81-4.718-9.355-6.099zm6.55 4.25-5.657 5.657c1.037 1.036 1.835 2.249 2.409 3.712l7.448-2.919 7.448-2.919a26.6 26.6 0 0 0-5.991-9.188zm4.2 6.45-7.435 2.954c.564 1.418.885 3.04.885 4.946h16c0-3.761-.645-7.406-2.015-10.854zm1.45 7.9h-8c0 2.405-.473 4.339-1.272 5.956l7.172 3.544 7.172 3.544c2.001-4.049 2.928-8.449 2.928-13.044zm-2.1 9.5-7.155-3.578c-.726 1.452-1.861 2.784-3.651 3.984l4.456 6.644 4.456 6.644c3.877-2.6 6.975-5.968 9.049-10.116zm-6.35 7.05-4.401-6.68c-1.676 1.103-4.136 2.092-7.684 2.692l1.335 7.888 1.335 7.888c5.118-.866 9.825-2.478 13.816-5.108zm-10.75 3.9 6.742-4.307-4.6-7.2-6.742 4.307-6.742 4.307 4.6 7.2zm-4.6-7.2.992 7.938a58 58 0 0 0 3.139-.467L229.8 202.2l-1.431-7.871c-.54.098-1.283.211-2.261.333zm2.7-.4 1.773 7.801 2.2-.5L232 201.7l-1.773-7.801-2.2.5zm2.2-.5 1.94 7.761c2.224-.556 4.354-1.373 6.341-2.493L236.35 200l-3.931-6.968c-.613.346-1.383.663-2.359.907zm4.35-1.7 3.931 6.968a20.7 20.7 0 0 0 5.44-4.4L239.7 197.3l-6.021-5.268c-.306.35-.705.687-1.26 1zm3.35-2.7 6.021 5.268a19.5 19.5 0 0 0 3.642-6.169l-7.513-2.749-7.513-2.749c-.171.468-.39.825-.658 1.131zm2.15-3.65 7.534 2.691c.837-2.345 1.216-4.781 1.216-7.241h-16c0 .807-.121 1.404-.284 1.859zm.75-4.55h8c0-2.715-.399-5.404-1.327-7.971l-7.523 2.721-7.523 2.721c.205.567.373 1.377.373 2.529zm-.85-5.25 7.573-2.578c-.896-2.633-2.318-5.02-4.282-7.044L239.3 179.8l-5.741 5.572c.236.242.447.556.618 1.056zm-2.45-4.05 5.826-5.483c-1.956-2.078-4.312-3.591-6.915-4.588l-2.861 7.471-2.861 7.471c.531.203.808.423.985.612zm-3.95-2.6 2.861-7.471c-2.651-1.015-5.451-1.429-8.261-1.429v16c1.257 0 2.056.186 2.539.371zm-5.4-.9v-8c-3.559 0-7.053.641-10.28 2.173l3.43 7.227 3.43 7.227c.706-.335 1.779-.627 3.42-.627zm-6.85 1.4-3.376-7.253c-2.84 1.322-5.371 3.139-7.461 5.497l5.987 5.306 5.987 5.306c.51-.575 1.212-1.125 2.239-1.603zm-4.85 3.55-5.926-5.375c-1.866 2.058-3.379 4.374-4.431 6.952l7.407 3.023 7.407 3.023c.281-.689.735-1.44 1.469-2.248zm-2.95 4.6-7.459-2.892c-.904 2.332-1.491 4.839-1.491 7.442h16c0-.197.047-.724.409-1.658zm-.95 4.55h-8c0 1.944.198 3.984.787 5.949l7.663-2.299 7.663-2.299a1 1 0 0 1-.02-.083 4 4 0 0 1-.041-.259 8 8 0 0 1-.052-1.009zm.45 3.65-7.641 2.371c.5 1.611 1.355 3.587 2.943 5.288l5.848-5.459 5.848-5.459c.348.373.53.686.604.828.075.143.076.18.039.06zm1.15 2.2-5.657 5.657c1.712 1.712 4.21 3.093 7.307 3.093v-16c.85 0 1.691.185 2.448.53a5.3 5.3 0 0 1 1.559 1.063zm1.65.75v8c3.697 0 6.366-1.96 7.946-3.819L219.45 196l-6.096-5.181a4.9 4.9 0 0 1 1.404-1.107A6 6 0 0 1 217.6 189zm1.85-1 5.946 5.352c1.461-1.623 2.448-3.542 3.155-5.266l-7.401-3.036-7.401-3.036a7 7 0 0 1-.355.754c-.074.128-.049.056.11-.12zm1.7-2.95 7.363 3.129c.704-1.656 1.376-3.56 2.028-5.658l-7.641-2.371-7.641-2.371c-.548 1.768-1.042 3.132-1.472 4.142zm1.75-4.9 7.611 2.465c.876-2.706 1.603-5.571 2.191-8.583l-7.852-1.532-7.852-1.532c-.479 2.454-1.052 4.69-1.709 6.717zm1.95-7.65 7.855 1.514a88 88 0 0 0 1.264-8.908L226 172.4l-7.969-.706a72 72 0 0 1-1.036 7.292zm1.15-8.1-.239 7.996 8.35.25.239-7.996.239-7.996-8.35-.25z" mask="url(#e)"/><defs><linearGradient id="c" x1="454.592" x2="462.728" y1="101.909" y2="220.42" gradientUnits="userSpaceOnUse"><stop offset=".308" stop-color="#FFF200"/><stop offset="1" stop-color="#FFC800"/></linearGradient><filter id="b" width="463.162" height="144.92" x="241.36" y="82" color-interpolation-filters="sRGB" filterUnits="userSpaceOnUse"><feFlood flood-opacity="0" result="BackgroundImageFix"/><feColorMatrix in="SourceAlpha" result="hardAlpha" values="0 0 0 0 0 0 0 0 0 0 0 0 0 0 0 0 0 0 127 0"/><feOffset dy="4"/><feGaussianBlur stdDeviation="2"/><feComposite in2="hardAlpha" operator="out"/><feColorMatrix values="0 0 0 0 0 0 0 0 0 0 0 0 0 0 0 0 0 0 0.57 0"/><feBlend in2="BackgroundImageFix" result="effect1_dropShadow_32_17"/><feBlend in="SourceGraphic" in2="effect1_dropShadow_32_17" result="shape"/></filter></defs></svg>