<svg xmlns="http://www.w3.org/2000/svg" width="129" height="185" fill="none"><path fill="#009BED" d="M128.789 123.35c-.15-.02-.29 0-.33.17-.02 1.17.01 2.34 0 3.5-.56 2.42-.85 4.9-1.33 7.33-2.55 12.71-11.11 27.64-21.59 35.65-7.28 5.57-12.48 7.61-20.82 11.04-7.15 2.94-15.45 3.22-23.44 3.29-6.68.06-15.74-2.39-22.48-5.15C17 170.25 2.66 149.71.12 126.35c-1.2-20.56 6.83-40.5 16.16-58.34C27.62 46.32 43.84 23.42 59.79 4.86 60.38 4.19 63.92 0 64.28 0c.76 0 7.76 8.56 8.83 9.86 14.61 17.77 28.84 38.09 39.52 58.48 8.85 16.9 16.3 35.61 16.16 55.01"/><path fill="#fff" d="M110.449 113.35c-.02.11.02.22 0 .33l-.67 3.33c-5.63 22.49-22.59 40.54-45 46.83-6.08 1.71-12.37 2.38-18.66 2.67 24.3 10.49 55.23-2.78 64.33-27.5.06-.16.23-.36.33-.67.03-.1-.03-.23 0-.33.62-.21.67-.8.84-1.32 2.61-7.55 3.22-15.91 2.11-23.8-.16-1.12-1.62-8.88-1.96-9.21-.48-.48-.6.03-.66.49-.16 1.24.12 2.71 0 4-.16 1.68-.43 3.49-.66 5.17z" opacity=".5"/></svg>